<?xml version="1.0" standalone="no"?>
<!DOCTYPE svg PUBLIC "-//W3C//DTD SVG 20010904//EN"
 "http://www.w3.org/TR/2001/REC-SVG-20010904/DTD/svg10.dtd">
<svg version="1.0" xmlns="http://www.w3.org/2000/svg"
 width="509.000000pt" height="510.000000pt" viewBox="0 0 509.000000 510.000000"
 preserveAspectRatio="xMidYMid meet">
<metadata>
Created by potrace 1.16, written by Peter Selinger 2001-2019
</metadata>
<g transform="translate(0.000000,510.000000) scale(0.100000,-0.100000)"
fill="#000000" stroke="none">
<path d="M2345 5094 c-16 -2 -73 -9 -125 -15 -365 -41 -770 -193 -1091 -407
-586 -392 -974 -990 -1099 -1693 -31 -175 -39 -548 -16 -739 136 -1113 983
-2006 2086 -2199 824 -144 1653 116 2246 705 400 398 663 940 729 1500 17 147
20 445 5 579 -65 589 -325 1126 -746 1541 -418 414 -955 665 -1548 723 -101
10 -370 13 -441 5z m-40 -248 l108 -83 181 -6 c234 -6 546 -58 546 -90 0 -26
-18 -40 -43 -34 -23 6 -25 4 -42 -76 -55 -259 -54 -258 -83 -251 -51 12 -51
10 -12 184 21 91 36 167 34 169 -7 8 -114 29 -118 23 -2 -4 -13 -72 -25 -152
-32 -215 -27 -200 -67 -200 l-35 0 7 63 c7 61 7 62 -13 45 -12 -11 -36 -18
-62 -18 -103 0 -165 83 -128 172 22 53 53 70 124 66 55 -3 58 -5 61 -30 3 -26
2 -27 -30 -17 -50 14 -83 -14 -83 -72 0 -36 4 -46 26 -58 29 -16 62 -10 98 18
20 15 26 34 36 102 7 46 10 87 6 91 -9 10 -313 32 -342 25 l-25 -6 13 -158
c17 -223 19 -203 -22 -203 -34 0 -35 1 -35 43 0 23 -3 66 -6 95 l-7 52 -69 0
c-50 0 -70 -4 -74 -14 -3 -8 -18 -20 -34 -26 l-29 -12 66 -56 65 -55 -23 -18
c-13 -10 -28 -19 -33 -19 -7 0 -159 126 -226 187 -12 11 -12 16 8 35 19 19 25
21 40 10 67 -48 95 -39 100 32 4 64 -10 80 -65 71 -24 -3 -74 -17 -113 -30
l-69 -24 -7 21 c-9 29 13 44 100 63 67 16 272 44 326 45 19 0 3 15 -75 66 -55
36 -102 68 -104 70 -5 5 29 44 39 44 3 0 55 -38 115 -84z m1219 -307 c55 -28
160 -88 233 -134 73 -46 133 -80 133 -77 0 4 -14 52 -30 106 -17 55 -30 103
-30 107 0 12 61 22 71 12 5 -5 17 -71 27 -146 10 -75 21 -138 23 -140 2 -1 44
-36 93 -77 208 -174 389 -418 532 -715 59 -122 134 -320 134 -351 0 -20 -57
-18 -68 2 -8 15 -27 12 -178 -33 l-169 -51 -12 27 c-24 53 -21 55 125 100 75
24 151 49 169 56 l32 14 -12 42 c-20 70 -26 69 -205 -9 l-162 -70 -10 36 c-5
20 -10 40 -10 43 0 4 42 26 94 49 l94 43 -31 63 -31 63 -24 -20 c-42 -32 -56
-26 -48 23 4 23 16 62 27 87 l20 45 70 -115 c39 -63 72 -115 74 -117 4 -4 65
27 65 33 0 3 -11 34 -25 70 -24 64 -98 189 -137 232 l-21 22 -146 -99 -146
-100 -17 33 c-9 17 -17 35 -18 39 0 4 38 36 85 72 l85 64 -26 32 -27 31 -15
-31 c-39 -81 -180 -76 -213 8 -15 37 -5 156 18 217 17 47 21 50 56 53 20 2 37
-1 37 -6 0 -5 -13 -38 -30 -73 -16 -35 -32 -83 -36 -106 -5 -36 -3 -45 19 -67
15 -14 33 -26 41 -26 21 0 53 49 68 104 7 25 15 46 18 46 3 -1 28 -30 55 -66
77 -100 77 -101 114 -67 l32 28 -64 80 c-67 84 -225 239 -274 267 l-28 16
-110 -133 c-61 -74 -115 -134 -121 -134 -6 -1 -19 8 -29 19 -19 21 -25 12 142
237 l53 72 -41 26 c-22 15 -46 28 -53 31 -7 3 -53 -55 -111 -141 -54 -80 -102
-145 -106 -145 -4 0 -17 8 -29 18 l-23 18 27 42 c14 23 26 44 26 47 0 3 -13 5
-29 5 -71 0 -141 91 -141 183 0 43 2 48 18 42 35 -16 84 -18 93 -4 13 21 11
95 -3 107 -7 5 -38 18 -68 28 -30 10 -57 20 -59 21 -2 1 0 14 3 29 6 22 11 25
34 19 15 -3 72 -29 126 -56z m-1859 14 c3 -15 3 -29 -2 -30 -35 -13 -33 -21
41 -179 73 -157 74 -159 52 -171 -34 -19 -45 -15 -63 22 -17 36 -27 43 -38 25
-12 -20 -82 -59 -118 -65 -40 -8 -110 19 -140 53 -19 20 -18 21 15 51 32 29
32 31 18 56 -8 15 -27 34 -42 43 -26 15 -27 14 -92 -38 -36 -29 -63 -58 -59
-64 4 -6 50 -70 104 -143 l98 -132 -30 -22 c-26 -18 -33 -19 -43 -8 -7 8 -57
67 -111 132 -53 64 -100 117 -105 117 -11 0 -110 -80 -110 -89 0 -4 16 -22 35
-41 19 -19 35 -38 35 -43 0 -6 -29 -42 -65 -82 -95 -107 -88 -149 26 -147 92
1 129 35 129 118 0 31 2 34 30 34 29 0 30 -1 30 -50 l0 -50 75 0 c68 0 75 -2
75 -20 0 -16 -7 -20 -32 -20 -18 0 -50 -3 -71 -7 l-39 -6 4 -68 3 -69 -27 0
c-27 0 -28 2 -28 49 0 74 -6 84 -37 55 -31 -29 -81 -44 -145 -44 -42 0 -49 -3
-62 -29 -50 -96 -148 -107 -255 -27 -19 14 -38 23 -41 19 -9 -11 -42 -95 -38
-98 2 -1 68 -40 148 -85 80 -45 146 -84 148 -85 2 -2 -4 -17 -12 -34 l-16 -31
-160 80 c-88 44 -162 80 -164 80 -2 0 -11 -20 -19 -45 -14 -40 -14 -45 0 -45
27 0 81 -31 98 -56 9 -14 18 -42 20 -62 2 -20 4 -38 4 -38 1 -1 35 9 77 22 43
13 81 21 85 18 5 -3 9 -20 9 -37 l0 -32 -162 -47 c-88 -26 -165 -45 -169 -42
-5 3 -9 18 -9 33 0 24 6 30 40 40 51 15 69 45 43 73 -10 11 -35 29 -56 39
l-37 20 -20 -45 c-10 -25 -27 -79 -37 -121 -17 -74 -17 -75 -49 -75 l-32 0 25
83 c80 262 247 566 428 779 36 43 65 80 65 83 0 3 -18 5 -39 5 -31 0 -44 6
-60 26 -12 15 -21 36 -21 47 0 73 72 176 137 198 50 16 149 6 201 -20 l43 -22
37 29 c76 60 429 261 458 262 7 0 15 -12 19 -27z m1180 -473 c310 -65 573
-207 790 -425 159 -159 258 -304 341 -499 143 -336 161 -743 48 -1093 -36
-114 -143 -325 -215 -427 -81 -113 -228 -262 -344 -349 -178 -132 -437 -243
-660 -283 -137 -24 -403 -24 -540 0 -345 61 -681 250 -908 511 -298 344 -431
787 -372 1237 46 349 193 646 445 899 259 259 543 396 945 453 79 11 373 -4
470 -24z m-2211 -1597 c-4 -21 -8 -41 -10 -44 -2 -3 -57 -30 -124 -59 -66 -29
-120 -56 -120 -60 0 -5 98 5 223 24 37 6 37 6 37 -27 l0 -34 -162 -22 c-211
-28 -198 -29 -198 17 0 37 1 38 103 95 149 83 149 79 5 74 l-128 -4 0 39 0 38
190 0 191 0 -7 -37z m3850 15 c3 -13 6 -49 6 -80 l0 -58 38 0 c20 0 42 4 48 8
6 4 14 37 18 73 7 59 9 66 27 62 16 -5 19 -15 19 -73 0 -76 3 -80 75 -80 41 0
43 1 49 38 3 20 6 56 6 80 0 35 3 42 20 42 18 0 19 -5 13 -102 -3 -57 -8 -106
-12 -109 -3 -4 -76 2 -161 12 -85 10 -163 18 -172 18 -16 1 -18 12 -18 96 0
86 2 95 19 95 11 0 21 -9 25 -22z m126 -276 l165 -28 -2 -28 c-1 -16 -4 -31
-7 -33 -3 -3 -71 7 -151 22 -80 15 -149 25 -152 22 -5 -6 41 -28 234 -118 57
-26 62 -31 54 -51 -8 -23 -10 -23 -182 -20 -105 1 -168 -1 -159 -6 8 -5 80
-27 158 -48 l144 -38 -6 -30 c-4 -16 -9 -32 -12 -35 -3 -3 -83 21 -178 52
l-173 57 11 56 10 56 55 -6 c148 -14 213 -17 208 -9 -3 4 -54 32 -114 61
l-108 54 3 49 c3 38 8 49 20 48 10 0 91 -12 182 -27z m-4012 -68 l82 -6 0 -42
0 -43 -150 -92 c-147 -89 -170 -100 -170 -82 0 5 -3 22 -6 38 -5 26 -2 32 28
50 31 18 33 22 30 66 l-4 47 -48 0 c-50 0 -60 9 -60 55 0 23 1 23 108 19 59
-3 144 -7 190 -10z m169 -296 l41 -103 -22 -12 c-19 -10 -23 -8 -40 20 -11 18
-20 33 -21 35 -1 1 -66 -22 -144 -53 -79 -30 -144 -55 -146 -55 -8 0 -24 65
-18 71 5 5 67 29 138 54 72 25 134 50 138 54 5 5 4 25 -1 44 -10 36 -6 44 24
46 6 1 29 -45 51 -101z m3588 11 c4 -5 -3 -35 -15 -65 -13 -30 -21 -56 -19
-57 15 -10 82 -37 85 -35 1 2 11 26 21 53 16 43 23 50 43 47 13 -1 26 -4 28
-7 3 -3 -5 -29 -16 -60 l-21 -55 49 -25 50 -25 25 56 c14 31 25 60 25 65 0 12
21 11 39 0 12 -8 7 -26 -29 -106 -24 -53 -46 -98 -49 -100 -11 -6 -321 148
-321 160 0 6 11 38 24 71 12 32 26 67 29 77 7 19 42 23 52 6z m-3527 -194 c7
-14 12 -28 12 -30 0 -6 -301 -168 -304 -164 -2 2 -11 19 -20 36 l-16 33 147
74 c82 41 153 75 159 75 6 1 16 -10 22 -24z m3552 -120 c164 -90 152 -79 133
-119 l-16 -35 -77 39 -76 38 -28 -44 c-16 -25 -27 -46 -25 -48 2 -1 32 -22 67
-46 34 -23 62 -45 62 -47 0 -11 -34 -53 -42 -53 -7 0 -259 166 -296 196 -6 4
30 54 39 54 4 0 34 -16 66 -35 32 -19 61 -35 64 -35 6 0 39 79 39 93 0 4 -25
23 -55 43 l-54 36 15 30 15 29 32 -19 c18 -11 79 -45 137 -77z m-3460 -5 c33
-18 70 -92 70 -141 0 -41 -4 -48 -61 -101 -67 -63 -147 -108 -191 -108 -31 0
-91 48 -114 91 -7 15 -14 44 -14 65 0 44 35 80 149 155 76 50 120 61 161 39z
m3180 -208 c19 -15 21 -22 12 -39 -10 -17 -18 -20 -56 -16 -39 5 -46 3 -61
-21 -10 -15 -16 -28 -14 -30 2 -2 44 -38 92 -80 49 -42 98 -76 109 -76 41 0
64 64 33 90 -19 16 -19 20 6 49 l20 24 29 -28 c42 -40 41 -89 -3 -147 -60 -78
-95 -84 -177 -29 -55 37 -160 167 -160 200 0 29 34 85 63 106 29 20 80 19 107
-3z m-3001 -46 l22 -24 -60 -121 c-34 -66 -58 -121 -54 -121 4 0 46 39 94 86
80 80 88 85 108 73 11 -8 21 -18 21 -23 0 -10 -50 -66 -162 -183 l-80 -82 -29
21 c-16 12 -29 27 -29 33 0 7 20 60 45 119 25 60 45 112 45 118 0 6 -39 -25
-86 -67 l-85 -78 -27 26 c-24 24 -25 29 -11 42 36 37 245 204 255 204 6 1 21
-10 33 -23z m2786 -168 c29 -13 30 -17 12 -42 -10 -13 -18 -15 -37 -8 -56 20
-103 -24 -69 -65 11 -13 29 -14 117 -8 l104 6 29 -27 c34 -33 38 -73 10 -124
-19 -37 -92 -88 -126 -89 -20 -1 -95 53 -95 69 0 4 12 15 26 25 23 15 27 15
43 1 33 -30 101 -11 101 29 0 41 -60 55 -160 35 -32 -6 -52 -4 -71 5 -63 33
-80 122 -31 167 15 14 34 28 42 31 26 10 78 7 105 -5z m-2509 -79 l33 -20 -20
-52 c-12 -29 -43 -109 -71 -179 -27 -71 -52 -128 -54 -128 -3 0 -18 7 -34 15
l-29 15 19 46 c11 25 20 50 20 55 0 5 -17 19 -37 33 l-38 23 -39 -30 -39 -31
-23 28 c-13 15 -24 30 -24 34 1 9 282 212 294 212 5 0 24 -9 42 -21z m165
-119 c10 -6 19 -15 19 -21 0 -9 -101 -189 -137 -246 -14 -20 -11 -23 56 -63
68 -41 72 -47 49 -77 -8 -10 -71 24 -206 113 -6 3 183 304 191 304 5 0 17 -5
28 -10z m2009 -20 c9 -16 6 -22 -15 -35 -14 -8 -36 -22 -50 -30 l-25 -16 20
-39 c11 -22 23 -40 26 -40 2 0 23 9 45 21 32 16 44 18 55 8 22 -18 18 -24 -36
-49 -27 -13 -50 -25 -50 -27 0 -2 14 -28 31 -58 l31 -55 37 22 c20 12 44 27
53 32 13 8 22 6 35 -6 9 -10 15 -19 12 -21 -17 -14 -181 -108 -184 -106 -1 2
-37 76 -79 163 -45 95 -73 163 -67 169 13 13 135 87 143 87 4 0 12 -9 18 -20z
m-266 -125 c26 -13 66 -59 66 -78 0 -3 -10 -7 -21 -10 -16 -4 -30 2 -50 24
-33 36 -53 37 -75 4 -21 -32 -14 -118 16 -199 23 -61 50 -86 92 -86 37 0 58
33 58 91 0 38 4 48 19 52 46 12 37 -118 -11 -166 -26 -27 -34 -29 -81 -24 -44
4 -56 10 -84 42 -39 46 -72 138 -80 227 -5 63 -4 68 22 92 23 22 47 33 93 45
2 1 18 -6 36 -14z m-1299 -39 c40 -17 55 -42 55 -93 0 -39 0 -39 -34 -35 -32
4 -35 7 -38 40 -3 40 -19 49 -64 38 -37 -10 -30 -36 26 -100 27 -31 55 -66 61
-77 12 -23 4 -86 -14 -110 -34 -45 -123 -53 -178 -16 -32 21 -34 27 -37 85 -2
49 0 62 12 62 35 0 46 -12 46 -50 0 -46 21 -70 61 -70 22 0 30 5 35 25 9 35
-10 75 -57 121 -23 22 -41 51 -45 70 -8 43 11 99 39 112 32 15 92 14 132 -2z
m1055 -40 c0 -2 20 -80 45 -172 24 -92 44 -169 42 -170 -1 -1 -18 -5 -38 -9
l-37 -7 -41 170 c-23 93 -41 172 -41 175 0 3 10 8 23 10 34 7 47 7 47 3z
m-762 -33 c26 -4 32 -10 32 -30 0 -24 -1 -25 -65 -18 l-65 7 -1 -41 c-1 -22
-2 -47 -3 -53 -1 -7 6 -14 14 -15 78 -10 90 -15 90 -34 0 -19 -4 -20 -65 -14
-64 7 -65 7 -65 -16 0 -13 -3 -40 -6 -60 l-6 -37 63 -8 c57 -8 64 -12 67 -32
3 -19 0 -23 -15 -18 -10 2 -59 12 -109 21 l-91 17 23 121 c13 67 29 146 35
176 l11 53 61 -6 c34 -4 77 -9 95 -13z m632 -41 c0 -27 -3 -110 -6 -184 l-7
-136 -50 -6 c-28 -3 -53 -4 -55 -1 -6 6 -122 325 -122 336 0 5 15 9 34 9 l34
0 47 -140 c27 -78 52 -143 57 -146 4 -3 8 67 8 155 l0 161 30 0 c29 0 30 -1
30 -48z m-315 -8 c32 -34 33 -91 4 -128 -11 -14 -16 -26 -10 -26 19 0 34 -43
37 -112 l3 -68 -38 0 -38 0 -7 62 c-3 34 -13 69 -20 77 -15 14 -67 18 -86 6
-5 -3 -10 -37 -10 -76 l0 -69 -40 0 -40 0 5 43 c5 42 25 290 25 308 0 5 42 9
95 9 91 0 97 -1 120 -26z"/>
<path d="M2208 4695 c-3 -3 1 -22 8 -43 7 -20 13 -45 14 -54 0 -15 10 -18 65
-18 72 0 72 0 59 83 l-7 37 -67 0 c-37 0 -69 -2 -72 -5z"/>
<path d="M3584 4433 c-26 -83 -69 -120 -126 -108 -30 7 -30 6 -24 -21 16 -61
80 -97 137 -76 16 7 41 36 68 82 47 79 47 85 -18 123 -30 18 -31 18 -37 0z"/>
<path d="M1515 4458 c-11 -6 -30 -17 -43 -25 l-23 -14 31 -29 c34 -32 39 -73
14 -121 -11 -22 -12 -34 -4 -44 32 -38 99 -15 130 44 l20 41 -43 77 c-24 42
-48 78 -53 80 -5 1 -18 -3 -29 -9z"/>
<path d="M879 4241 c-32 -33 -39 -80 -14 -101 8 -6 32 -14 53 -17 37 -5 44 -1
100 48 33 30 61 58 61 62 2 15 -69 37 -119 37 -44 0 -56 -5 -81 -29z"/>
<path d="M888 3964 c-116 -136 -155 -203 -110 -190 9 3 43 8 75 12 l57 6 0 38
c0 41 33 99 81 141 l29 26 -21 26 c-11 15 -24 27 -29 27 -5 0 -42 -39 -82 -86z"/>
<path d="M2612 3903 c-39 -203 -13 -454 63 -604 14 -26 25 -50 25 -53 0 -2
-13 -7 -30 -11 -62 -14 -110 -74 -110 -140 0 -106 107 -172 204 -126 60 30 81
71 74 148 l-6 59 82 49 c115 68 214 145 301 233 75 75 155 182 155 208 0 37
-224 160 -389 214 -80 26 -316 80 -348 80 -6 0 -15 -26 -21 -57z"/>
<path d="M2225 3905 c-163 -30 -379 -135 -563 -273 l-52 -39 46 -64 c104 -141
264 -267 417 -329 41 -16 81 -30 88 -30 8 0 6 -7 -6 -20 -27 -30 -32 -106 -9
-147 20 -38 78 -73 120 -73 40 0 94 30 115 64 40 66 13 169 -51 196 -36 15
-36 15 -10 122 33 138 46 310 32 435 -12 116 -27 174 -45 172 -7 0 -43 -7 -82
-14z"/>
<path d="M3554 3382 c-152 -98 -281 -240 -353 -386 -22 -45 -42 -89 -45 -99
-5 -17 -8 -16 -34 3 -36 27 -104 30 -150 6 -91 -47 -95 -184 -8 -241 65 -43
168 -19 202 46 12 25 20 30 37 25 250 -72 375 -91 547 -83 179 8 173 6 165 86
-9 90 -46 229 -88 328 -57 135 -177 342 -203 350 -5 2 -37 -14 -70 -35z"/>
<path d="M1380 3333 c-38 -47 -120 -207 -148 -290 -42 -122 -97 -376 -86 -394
2 -4 43 -13 91 -19 175 -25 388 3 532 70 35 17 65 30 67 30 2 0 4 -10 4 -21 0
-28 35 -85 58 -94 76 -31 130 -24 176 24 37 39 45 103 20 156 -29 61 -112 89
-184 61 -11 -4 -25 12 -50 56 -90 159 -251 340 -371 418 -34 22 -66 40 -70 40
-4 0 -21 -17 -39 -37z"/>
<path d="M2973 2479 c-40 -26 -68 -94 -59 -143 8 -43 45 -89 85 -106 30 -12
91 -10 122 4 11 5 19 -1 28 -21 7 -15 47 -79 88 -142 87 -131 214 -265 318
-335 l70 -47 38 43 c20 24 60 86 87 140 76 147 124 306 164 539 l7 37 -84 12
c-52 8 -135 11 -223 7 -152 -5 -252 -27 -355 -76 l-59 -28 -10 38 c-6 21 -25
50 -45 68 -30 26 -44 31 -88 31 -35 0 -62 -7 -84 -21z"/>
<path d="M1965 2436 c-30 -13 -79 -62 -87 -87 -3 -9 -20 -8 -69 4 -189 47
-453 62 -593 32 -38 -8 -71 -17 -74 -20 -9 -9 16 -150 38 -217 33 -99 122
-273 198 -388 39 -58 77 -111 85 -118 34 -28 239 159 334 305 57 87 112 203
113 236 0 10 3 17 8 15 57 -30 90 -39 120 -34 164 26 160 264 -5 282 -21 2
-52 -2 -68 -10z"/>
<path d="M2720 2162 c-104 -52 -106 -204 -3 -252 22 -10 31 -20 27 -30 -16
-42 -55 -225 -64 -300 -17 -140 -10 -317 16 -402 14 -46 225 2 410 91 120 58
300 167 325 197 10 12 5 25 -27 72 -52 75 -155 184 -229 241 -61 47 -234 141
-260 141 -23 0 -27 18 -11 42 23 32 21 113 -4 153 -21 34 -80 65 -123 65 -12
0 -38 -8 -57 -18z"/>
<path d="M2274 2131 c-54 -33 -75 -108 -53 -189 2 -8 -24 -31 -64 -55 -199
-123 -380 -296 -447 -428 l-20 -38 58 -41 c145 -105 398 -193 649 -225 l52 -7
8 39 c4 21 8 115 8 208 0 191 -17 280 -79 408 -29 60 -30 67 -14 67 32 0 78
30 98 63 24 39 26 107 5 148 -34 65 -135 90 -201 50z"/>
<path d="M833 1470 c-46 -20 -121 -70 -147 -96 -24 -23 -19 -52 11 -80 20 -18
34 -23 52 -19 51 13 191 129 191 159 0 19 -35 56 -52 56 -7 0 -32 -9 -55 -20z"/>
</g>
</svg>
